<svg width="268" height="114" viewBox="0 0 268 114" fill="none" xmlns="http://www.w3.org/2000/svg">
<path d="M126.35 51.9999V2.99994H148.33C153.977 2.99994 158.317 4.14327 161.35 6.42994C164.383 8.66994 165.9 11.7499 165.9 15.6699C165.9 18.3299 165.293 20.5699 164.08 22.3899C162.913 24.2099 161.327 25.6099 159.32 26.5899C157.313 27.5699 155.143 28.0599 152.81 28.0599L154.07 25.9599C156.87 25.9599 159.343 26.4499 161.49 27.4299C163.637 28.4099 165.34 29.8566 166.6 31.7699C167.86 33.6366 168.49 35.9699 168.49 38.7699C168.49 42.9699 166.903 46.2366 163.73 48.5699C160.603 50.8566 155.937 51.9999 149.73 51.9999H126.35ZM133.35 46.3299H149.45C153.323 46.3299 156.287 45.6766 158.34 44.3699C160.393 43.0633 161.42 41.0099 161.42 38.2099C161.42 35.3633 160.393 33.2866 158.34 31.9799C156.287 30.6733 153.323 30.0199 149.45 30.0199H132.72V24.3499H147.7C151.247 24.3499 154 23.6966 155.96 22.3899C157.92 21.0833 158.9 19.1233 158.9 16.5099C158.9 13.8966 157.92 11.9366 155.96 10.6299C154 9.32327 151.247 8.66994 147.7 8.66994H133.35V46.3299Z" fill="white"/>
<path d="M179.328 51.9999V2.99994H186.328V51.9999H179.328Z" fill="white"/>
<path d="M223.118 52.5599C219.385 52.5599 215.908 51.9299 212.688 50.6699C209.515 49.4099 206.762 47.6599 204.428 45.4199C202.095 43.1333 200.275 40.4733 198.968 37.4399C197.662 34.4066 197.008 31.0933 197.008 27.4999C197.008 23.9066 197.662 20.5933 198.968 17.5599C200.275 14.5266 202.095 11.8899 204.428 9.64994C206.762 7.36327 209.515 5.58994 212.688 4.32994C215.862 3.06994 219.338 2.43994 223.118 2.43994C226.852 2.43994 230.282 3.06994 233.408 4.32994C236.582 5.54327 239.335 7.29327 241.668 9.57994C244.048 11.8199 245.868 14.4566 247.128 17.4899C248.435 20.5233 249.088 23.8599 249.088 27.4999C249.088 31.1399 248.435 34.4766 247.128 37.5099C245.868 40.5433 244.048 43.2033 241.668 45.4899C239.335 47.7299 236.582 49.4799 233.408 50.7399C230.282 51.9533 226.852 52.5599 223.118 52.5599ZM223.118 46.3299C225.825 46.3299 228.322 45.8633 230.608 44.9299C232.942 43.9966 234.948 42.6899 236.628 41.0099C238.355 39.2833 239.685 37.2766 240.618 34.9899C241.598 32.7033 242.088 30.2066 242.088 27.4999C242.088 24.7933 241.598 22.2966 240.618 20.0099C239.685 17.7233 238.355 15.7399 236.628 14.0599C234.948 12.3333 232.942 11.0033 230.608 10.0699C228.322 9.13661 225.825 8.66994 223.118 8.66994C220.365 8.66994 217.822 9.13661 215.488 10.0699C213.202 11.0033 211.195 12.3333 209.468 14.0599C207.742 15.7399 206.388 17.7233 205.408 20.0099C204.475 22.2966 204.008 24.7933 204.008 27.4999C204.008 30.2066 204.475 32.7033 205.408 34.9899C206.388 37.2766 207.742 39.2833 209.468 41.0099C211.195 42.6899 213.202 43.9966 215.488 44.9299C217.822 45.8633 220.365 46.3299 223.118 46.3299Z" fill="white"/>
<path d="M144.803 111C141.516 111 138.476 110.455 135.682 109.366C132.929 108.235 130.525 106.663 128.471 104.652C126.458 102.599 124.876 100.211 123.726 97.4874C122.575 94.764 122 91.7682 122 88.5C122 85.2318 122.575 82.236 123.726 79.5126C124.876 76.7891 126.478 74.4218 128.533 72.4106C130.587 70.3575 132.991 68.7863 135.743 67.6969C138.537 66.5656 141.578 66 144.865 66C148.193 66 151.254 66.5866 154.047 67.7598C156.882 68.8911 159.286 70.588 161.258 72.8506L157.252 76.8101C155.609 75.0503 153.76 73.7514 151.706 72.9134C149.651 72.0335 147.453 71.5936 145.111 71.5936C142.687 71.5936 140.427 72.0126 138.332 72.8506C136.278 73.6885 134.49 74.8617 132.97 76.3701C131.45 77.8785 130.258 79.6802 129.396 81.7751C128.574 83.8282 128.163 86.0698 128.163 88.5C128.163 90.9302 128.574 93.1927 129.396 95.2877C130.258 97.3408 131.45 99.1215 132.97 100.63C134.49 102.138 136.278 103.311 138.332 104.149C140.427 104.987 142.687 105.406 145.111 105.406C147.453 105.406 149.651 104.987 151.706 104.149C153.76 103.27 155.609 101.929 157.252 100.127L161.258 104.087C159.286 106.349 156.882 108.067 154.047 109.24C151.254 110.413 148.172 111 144.803 111Z" fill="white"/>
<path d="M179.551 110.497L165.13 66.5028H171.478L184.728 107.103H181.523L195.267 66.5028H200.937L214.372 107.103H211.29L224.726 66.5028H230.581L216.159 110.497H209.688L197.116 72.8506H198.78L186.146 110.497H179.551Z" fill="white"/>
<path d="M247.108 110.497V71.9707H232.316V66.5028H268V71.9707H253.209V110.497H247.108Z" fill="white"/>
<path d="M97.0096 2.74036C47.5 42.5673 -29.5962 104.683 111.808 69.6057" stroke="white" stroke-linecap="round"/>
<path d="M105.231 3.28845C69.4229 36.1731 6.57682 92.625 111.808 61.3846" stroke="white" stroke-linecap="round"/>
<path d="M111.26 10.9615C86.2308 33.9808 51.1904 75.3058 111.26 54.2596" stroke="white" stroke-linecap="round"/>
<path d="M111.808 29.0481C101.394 37.2692 80.5672 60.2885 111.808 44.9423" stroke="white" stroke-linecap="round"/>
<path d="M2.74036 80.5673C1.09613 73.2596 8.55 55.6846 27.4038 43.8461C50.9712 29.048 54.8077 36.173 82.7596 2.74036" stroke="white" stroke-linecap="round"/>
<path d="M2.74036 48.2307C37.8173 32.8846 89.9942 1.425 18.0865 2.74039" stroke="white" stroke-linecap="round"/>
<path d="M10.4134 3.28845C32.3365 7.30768 70.1538 14.7981 2.19226 41.1058" stroke="white" stroke-linecap="round"/>
<path d="M2.19226 14.7981C21.375 16.2596 52.6153 16.9904 2.19226 30.1442" stroke="white" stroke-linecap="round"/>
<path d="M111.26 83.3077C98.4711 83.3077 65.9884 83.8558 53.7115 94.8173C41.4346 105.779 14.6153 88.6058 2.19226 78.375" stroke="white" stroke-linecap="round"/>
<path d="M65.2211 111.26C69.7884 102.125 74.5384 84.4038 111.26 90.9808" stroke="white" stroke-linecap="round"/>
<path d="M83.8557 111.26C84.7692 102.49 87.6923 87.1442 111.26 98.1057" stroke="white" stroke-linecap="round"/>
<path d="M3.28845 95.9135C16.4423 96.2788 49.3269 102.49 19.7308 111.26" stroke="white" stroke-linecap="round"/>
<path d="M2.74036 103.586C11.875 101.942 32.8846 101.942 12.6057 111.26" stroke="white" stroke-linecap="round"/>
<rect x="2" y="2" width="110" height="110" rx="9" stroke="white" stroke-width="4"/>
</svg>
