<svg width="185" height="56" fill="none" xmlns="http://www.w3.org/2000/svg"><path d="M68.7681 21.9311c.0768-.0257.2049-.0385.3842-.0385.3842 0 .6787.1284.8837.3854.2049.2569.3073.6038.3073 1.0406 0 .7966-.1537 1.4261-.461 1.8887-.3074.4368-.7684.758-1.3832.9635-1.1782.3855-2.4333.5782-3.7652.5782-1.127 0-2.19-.1542-3.1889-.4625-.7428 1.2077-1.5624 2.4539-2.4589 3.7387-1.0246 1.4646-1.9082 2.4667-2.651 3.0063-.7172.5396-1.5369.8095-2.459.8095-1.0245 0-1.8057-.3983-2.3436-1.1949-.5123-.7966-.8325-2.107-.9605-3.9314l-.1921-2.8137c-.7941 2.1585-1.5112 3.803-2.1516 4.9336-.6147 1.1306-1.2423 1.9143-1.8826 2.3511-.6147.4368-1.3447.6553-2.19.6553-1.0501 0-1.8826-.4112-2.4973-1.2334-.5891-.8223-.9605-2.1199-1.1142-3.8929-.3074-3.5974-.4611-6.7451-.4611-9.4431v-1.349c.0257-.848.2562-1.4389.6916-1.773.4354-.334 1.0886-.5011 1.9595-.5011.6659 0 1.1526.1542 1.4599.4626.333.2826.4995.7708.4995 1.4646 0 2.955.1793 6.7965.5379 11.5244 1.7417-3.6744 3.3426-7.503 4.8026-11.4858.2817-.7709.6147-1.2848.9989-1.5418.4098-.2826.8965-.424 1.46-.424.6916 0 1.1654.1414 1.4216.424.2817.2827.4226.7837.4226 1.5032 0 2.955.1793 6.7965.5379 11.5244 1.5368-2.2869 2.6894-4.1112 3.4578-5.4731-.3842-.7452-.5763-1.6317-.5763-2.6595 0-.8736.1921-1.7216.5763-2.5438.3842-.8223.9093-1.4904 1.5753-2.0043.6659-.5139 1.4215-.7709 2.2668-.7709.7428 0 1.3447.2699 1.8058.8095.461.5139.6915 1.2719.6915 2.274 0 1.1563-.3073 2.4796-.9221 3.97.9734-.0514 2.2669-.2441 3.8805-.5782l1.0374-.1927Z" fill="red"/><path d="M84.1438 25.0531c.333 0 .5891.1542.7684.4625.2049.3084.3074.7323.3074 1.2719 0 1.0279-.2433 1.8244-.73 2.3897-.9477 1.1563-2.2924 2.2227-4.0342 3.1991-1.7161.9764-3.5603 1.4647-5.5325 1.4647-2.6895 0-4.777-.7324-6.2626-2.197-1.4856-1.4647-2.2284-3.4689-2.2284-6.0128 0-1.7729.3714-3.4175 1.1142-4.9335.7428-1.5417 1.7674-2.7623 3.0737-3.6616 1.3319-.8993 2.8303-1.349 4.4952-1.349 1.4856 0 2.6766.4497 3.5731 1.349.8965.8737 1.3447 2.0685 1.3447 3.5845 0 1.773-.6403 3.3019-1.921 4.5867-1.2551 1.259-3.3938 2.2612-6.4163 3.0063.6404 1.182 1.857 1.773 3.65 1.773 1.1526 0 2.4589-.3983 3.9189-1.1948 1.4856-.8223 2.7663-1.8886 3.8421-3.1991.3073-.3597.6531-.5396 1.0373-.5396Zm-9.682-5.5888c-.9477 0-1.7545.5525-2.4205 1.6574-.6403 1.1049-.9605 2.4411-.9605 4.0085v.0771c1.5112-.3598 2.7023-.8994 3.5731-1.6188.8709-.7195 1.3063-1.5546 1.3063-2.5054 0-.4882-.1408-.8736-.4226-1.1563-.2561-.3083-.6147-.4625-1.0758-.4625Z" fill="red"/><path d="M99.2269 25.0531c.333 0 .5891.1542.7684.4625.2047.3084.3077.7323.3077 1.2719 0 1.0279-.244 1.8244-.7303 2.3897-.9477 1.1563-2.2924 2.2227-4.0342 3.1991-1.7161.9764-3.5603 1.4647-5.5325 1.4647-2.6895 0-4.777-.7324-6.2626-2.197-1.4856-1.4647-2.2284-3.4689-2.2284-6.0128 0-1.7729.3714-3.4175 1.1142-4.9335.7428-1.5417 1.7674-2.7623 3.0737-3.6616 1.3319-.8993 2.8303-1.349 4.4952-1.349 1.4856 0 2.6766.4497 3.5731 1.349.8965.8737 1.3447 2.0685 1.3447 3.5845 0 1.773-.6403 3.3019-1.921 4.5867-1.2551 1.259-3.3939 2.2612-6.4163 3.0063.6404 1.182 1.857 1.773 3.65 1.773 1.1526 0 2.4589-.3983 3.9189-1.1948 1.4856-.8223 2.7663-1.8886 3.842-3.1991.3074-.3597.6532-.5396 1.0374-.5396Zm-9.682-5.5888c-.9477 0-1.7545.5525-2.4205 1.6574-.6403 1.1049-.9605 2.4411-.9605 4.0085v.0771c1.5112-.3598 2.7023-.8994 3.5731-1.6188.8709-.7195 1.3063-1.5546 1.3063-2.5054 0-.4882-.1409-.8736-.4226-1.1563-.2561-.3083-.6147-.4625-1.0758-.4625Z" fill="red"/><path d="M114.31 25.0531c.333 0 .589.1542.768.4625.205.3084.308.7323.308 1.2719 0 1.0279-.244 1.8244-.73 2.3897-1.102 1.3619-2.305 2.4796-3.612 3.3533-1.306.8736-2.804 1.3105-4.495 1.3105-5.225 0-7.8378-3.6874-7.8378-11.062 0-1.1306.0384-2.274.1153-3.4303h-1.4984c-.7684 0-1.2935-.1413-1.5753-.424-.2561-.2826-.3842-.7323-.3842-1.349 0-1.4389.5763-2.1584 1.729-2.1584h2.1899c.4355-2.8265 1.1015-5.4089 1.9975-7.7472.897-2.33829 1.973-4.20121 3.228-5.58877C105.793.693778 107.164 0 108.624 0c1.076 0 1.921.475366 2.536 1.4261.614.95073.922 2.14557.922 3.58452 0 3.9828-1.665 7.45168-4.995 10.40668h4.303c.41 0 .704.0899.884.2698.179.1799.269.5139.269 1.0021 0 1.773-1.448 2.6595-4.342 2.6595h-4.687c-.051 1.2848-.077 2.2869-.077 3.0064 0 2.6723.307 4.5481.922 5.6273.64 1.0792 1.639 1.6188 2.997 1.6188 1.101 0 2.075-.334 2.92-1.0021.845-.6681 1.844-1.6702 2.997-3.0064.307-.3597.653-.5396 1.037-.5396Zm-6.724-21.35295c-.384 0-.819.48821-1.306 1.46464-.461.95073-.909 2.2869-1.345 4.0085-.409 1.69591-.755 3.58451-1.037 5.66581 1.511-1.3104 2.638-2.7751 3.381-4.3939.768-1.6445 1.153-3.13484 1.153-4.471 0-1.51603-.282-2.27405-.846-2.27405Z" fill="red"/><path d="M119.404 34.6889c-1.332 0-2.357-.3083-3.074-.925-.691-.6167-1.037-1.3105-1.037-2.0814 0-.6681.243-1.2462.73-1.7344.486-.4882 1.204-.7323 2.151-.7323.333 0 .717.0385 1.153.1156.461.0514.807.0899 1.037.1156-.025-.6681-.179-1.2976-.461-1.8886-.256-.591-.589-1.1563-.999-1.6959-.41-.5653-.794-1.0535-1.152-1.4646-.794 1.516-1.588 2.7751-2.382 3.7772-.769 1.0021-1.614 1.9529-2.536 2.8522-.461.4625-.948.6938-1.46.6938-.41 0-.743-.1414-.999-.424-.256-.3083-.384-.6809-.384-1.1178 0-.5139.179-.9892.538-1.4261l.499-.6166c1.409-1.7473 2.472-3.1863 3.189-4.3169.461-.7452.922-1.6317 1.383-2.6595.487-1.0278 1.114-2.4282 1.883-4.2012.486-1.1306 1.498-1.6959 3.035-1.6959.717 0 1.217.0643 1.498.1927.282.1285.423.3341.423.6167 0 .1542-.051.3983-.154.7323-.102.3341-.243.6681-.422 1.0022-.461.925-.692 1.7087-.692 2.3511 0 .3854.128.8094.384 1.2719.282.4625.705 1.0407 1.268 1.7345.82 1.0792 1.435 2.0042 1.844 2.7751.436.7452.653 1.5674.653 2.4668 0 1.0792-.256 2.107-.768 3.0834-.487.9507-1.178 1.7216-2.075 2.3126-.896.591-1.921.8865-3.073.8865ZM16.8859 55.1891c-5.11 0-9.20178-.9636-12.27543-2.8908C1.53682 50.3326 0 47.3455 0 43.337c0-2.1198.364996-3.7387 1.09499-4.8564.72999-1.1178 1.80577-1.6766 3.22733-1.6766 1.03735 0 1.88261.2698 2.53576.8094.65315.5396.97972 1.2334.97972 2.0813 0 .7709-.05763 1.4454-.17289 2.0235 0 .1542-.03842.424-.11526.8094-.03842.3855-.05763.7902-.05763 1.2141 0 1.7345.86446 3.0257 2.59338 3.8736 1.7674.848 4.2263 1.272 7.3768 1.272 3.2657 0 5.8207-.5782 7.6649-1.7345 1.8442-1.1948 2.7663-2.8522 2.7663-4.9721 0-1.3104-.4227-2.4282-1.2679-3.3532-.8453-.9636-1.9018-1.7537-3.1697-2.3704-1.2679-.6553-3.0545-1.4454-5.3597-2.3704-2.9584-1.1563-5.3789-2.2548-7.2615-3.2955-1.84418-1.0407-3.43863-2.4475-4.78335-4.2205-1.30631-1.8115-1.95946-4.047-1.95946-6.7065 0-2.7751.73-5.2419 2.18998-7.4003 1.4984-2.1584 3.63075-3.83504 6.39703-5.02988 2.8047-1.19484 6.0897-1.79226 9.8549-1.79226 2.8047 0 5.3789.42398 7.7225 1.27193 2.3437.80941 4.2071 2.06206 5.5902 3.75801 1.4216 1.6959 2.1324 3.7772 2.1324 6.244 0 2.4282-.365 4.259-1.095 5.4924-.73 1.2333-1.8058 1.85-3.2274 1.85-.9989 0-1.8441-.3083-2.5357-.925-.6532-.6167-.9797-1.349-.9797-2.197 0-.7323.0576-1.4068.1729-2.0235.1152-1.1563.1728-1.8886.1728-2.1969 0-1.6189-.7876-2.8522-2.3628-3.7002-1.5753-.8479-3.5347-1.2719-5.8784-1.2719-3.3041 0-5.8399.6167-7.6073 1.8501-1.7289 1.1948-2.5933 2.8907-2.5933 5.0877 0 1.4646.4418 2.7173 1.3255 3.7579.9221 1.0407 2.0555 1.9079 3.4002 2.6017 1.3447.6938 3.2273 1.5225 5.6478 2.486 2.92 1.1949 5.2636 2.2741 7.031 3.2377 1.7673.9635 3.2657 2.274 4.4952 3.9314 1.2679 1.6573 1.9018 3.7001 1.9018 6.1283 0 4.5481-1.7289 8.0556-5.1868 10.5223-3.4194 2.4283-8.0107 3.6424-13.7737 3.6424ZM155.666 55.0156c-2.229 0-4.745-.1927-7.55-.5781-1.537-.1927-2.593-.5974-3.169-1.2141-.577-.6167-.827-1.6188-.75-3.0064.269-3.8158.903-8.5181 1.902-14.1068.999-5.6273 2.209-11.0427 3.631-16.246.269-.9636.807-1.6381 1.614-2.0235.806-.3854 1.863-.5782 3.169-.5782 2.344 0 3.516.6553 3.516 1.9657 0 .5397-.116 1.1563-.346 1.8501-.999 3.0835-1.998 7.2269-2.997 12.4302-.999 5.1648-1.71 10.0983-2.132 14.8006 1.152.1156 2.459.1735 3.919.1735 6.723 0 11.737-2.0428 15.041-6.1284 3.343-4.0856 5.014-9.5395 5.014-16.3616 0-4.5867-1.306-8.1326-3.919-10.6379-2.612-2.5054-6.301-3.758-11.065-3.758-3.073 0-6.128.4818-9.163 1.4454-2.997.9635-5.706 2.2355-8.126 3.8157-.5.3469-1.037.5204-1.614.5204-.653 0-1.172-.2698-1.556-.8094-.384-.5782-.576-1.272-.576-2.0814 0-.925.154-1.6766.461-2.2547.307-.6167.826-1.1756 1.556-1.6767 2.651-1.81151 5.763-3.17979 9.336-4.10483 3.573-.96358 7.012-1.44537 10.316-1.44537 4.687 0 8.741.82868 12.16 2.48604 3.42 1.61881 6.052 4.00846 7.896 7.16906 1.844 3.1605 2.766 6.9763 2.766 11.4473 0 5.82-1.153 10.9077-3.458 15.2631-2.305 4.3169-5.667 7.6701-10.085 10.0598-4.419 2.3897-9.682 3.5845-15.791 3.5845Z" fill="red"/><path d="M128.179 23.2858c.494-.9822 1.463-1.6377 2.558-1.7314l8.467-.7241c1.12-.0958 2.03.8895 1.845 1.9981-.257 1.3878-1.415 2.4293-2.822 2.5378l-8.59.6627c-.963.0743-1.789-.6815-1.8-1.6478-.003-.2674.058-.5316.178-.7704l.164-.3249Z" fill="#2B93CD"/></svg>