<svg width="31" height="16" viewBox="0 0 31 16" fill="none" xmlns="http://www.w3.org/2000/svg">
<path d="M13.1702 6.22427C12.973 6.24066 12.8129 6.18331 12.6896 6.05223C12.5747 5.92115 12.5172 5.73682 12.5172 5.49923C12.5172 5.27803 12.5705 5.11418 12.6773 5.00768C12.7923 4.90118 12.9566 4.83973 13.1702 4.82335L15.696 4.57757C15.9013 4.56119 16.0574 4.61444 16.1642 4.73733C16.2791 4.85202 16.3366 5.02407 16.3366 5.25346C16.3366 5.69585 16.1231 5.93753 15.696 5.97849L13.1702 6.22427Z" fill="#198FD1"/>
<path d="M5.41505 16C3.77636 16 2.46419 15.6928 1.47851 15.0783C0.492837 14.4516 0 13.4992 0 12.2212C0 11.5453 0.117049 11.0292 0.351146 10.6728C0.585244 10.3164 0.93023 10.1382 1.3861 10.1382C1.71877 10.1382 1.98983 10.2243 2.19929 10.3963C2.40874 10.5684 2.51347 10.7896 2.51347 11.0599C2.51347 11.3057 2.49499 11.5207 2.45803 11.7051C2.45803 11.7542 2.4457 11.8402 2.42106 11.9631C2.40874 12.086 2.40258 12.2151 2.40258 12.3502C2.40258 12.9032 2.6798 13.3149 3.23424 13.5853C3.80101 13.8556 4.58955 13.9908 5.59986 13.9908C6.64714 13.9908 7.46648 13.8065 8.05789 13.4378C8.64929 13.0568 8.94499 12.5284 8.94499 11.8525C8.94499 11.4347 8.80946 11.0783 8.5384 10.7834C8.26734 10.4762 7.92852 10.2243 7.52193 10.0276C7.11534 9.81874 6.54241 9.56682 5.80316 9.27189C4.85445 8.90323 4.07823 8.55299 3.4745 8.2212C2.8831 7.8894 2.37178 7.44086 1.94055 6.87558C1.52163 6.298 1.31218 5.58525 1.31218 4.73733C1.31218 3.85253 1.54628 3.06605 2.01447 2.37788C2.49499 1.68971 3.1788 1.15515 4.06591 0.774193C4.96533 0.393241 6.01877 0.202765 7.22622 0.202765C8.12565 0.202765 8.95116 0.337941 9.70273 0.608295C10.4543 0.866359 11.0519 1.26574 11.4954 1.80645C11.9513 2.34716 12.1792 3.01075 12.1792 3.79723C12.1792 4.57143 12.0622 5.15515 11.8281 5.54839C11.594 5.94163 11.249 6.13825 10.7931 6.13825C10.4728 6.13825 10.2017 6.03994 9.97995 5.84332C9.7705 5.6467 9.66577 5.41321 9.66577 5.14286C9.66577 4.90937 9.68425 4.69432 9.72121 4.49769C9.75818 4.12903 9.77666 3.89554 9.77666 3.79723C9.77666 3.28111 9.52408 2.88786 9.01892 2.61751C8.51376 2.34716 7.88539 2.21198 7.13382 2.21198C6.07422 2.21198 5.26104 2.4086 4.69427 2.80184C4.13983 3.1828 3.86261 3.7235 3.86261 4.42396C3.86261 4.89094 4.0043 5.29032 4.28768 5.62212C4.58339 5.95392 4.94685 6.23041 5.37809 6.45161C5.80932 6.67281 6.41304 6.93702 7.18926 7.24424C8.12565 7.62519 8.87723 7.96928 9.44399 8.2765C10.0108 8.58372 10.4913 9.00154 10.8855 9.52995C11.2921 10.0584 11.4954 10.7097 11.4954 11.4839C11.4954 12.9339 10.941 14.0522 9.8321 14.8387C8.73554 15.6129 7.26319 16 5.41505 16Z" fill="#FF0000"/>
<path d="M21.593 15.9447C20.8784 15.9447 20.0713 15.8833 19.1719 15.7604C18.6791 15.6989 18.3402 15.5699 18.1554 15.3733C17.9706 15.1767 17.8905 14.8571 17.9152 14.4147C18.0014 13.1982 18.2047 11.6989 18.5251 9.91705C18.8454 8.12289 19.2335 6.39631 19.6894 4.73733C19.7756 4.43011 19.9481 4.21505 20.2069 4.09217C20.4656 3.96928 20.8044 3.90783 21.2233 3.90783C21.9749 3.90783 22.3507 4.11674 22.3507 4.53456C22.3507 4.7066 22.3137 4.90323 22.2398 5.12442C21.9195 6.10753 21.5991 7.42857 21.2788 9.08756C20.9584 10.7343 20.7305 12.3072 20.595 13.8065C20.9646 13.8433 21.3835 13.8618 21.8517 13.8618C24.0079 13.8618 25.6158 13.2104 26.6754 11.9078C27.7473 10.6052 28.2832 8.86636 28.2832 6.69124C28.2832 5.22888 27.8643 4.09831 27.0265 3.29954C26.1887 2.50077 25.0059 2.10138 23.4781 2.10138C22.4924 2.10138 21.5129 2.25499 20.5395 2.56221C19.5785 2.86943 18.7099 3.27496 17.9337 3.7788C17.7735 3.8894 17.601 3.9447 17.4162 3.9447C17.2067 3.9447 17.0404 3.85868 16.9172 3.68664C16.794 3.5023 16.7324 3.28111 16.7324 3.02304C16.7324 2.72811 16.7816 2.48848 16.8802 2.30415C16.9788 2.10753 17.1451 1.92934 17.3792 1.76958C18.2294 1.19201 19.2274 0.75576 20.3732 0.460829C21.519 0.15361 22.6218 0 23.6814 0C25.1845 0 26.4844 0.264209 27.5809 0.792626C28.6775 1.30876 29.5215 2.07066 30.1129 3.07834C30.7043 4.08602 31 5.30261 31 6.72811C31 8.58372 30.6304 10.2058 29.8911 11.5945C29.1519 12.9708 28.0738 14.0399 26.6569 14.8018C25.24 15.5637 23.552 15.9447 21.593 15.9447Z" fill="#FF0000"/>
</svg>
